<svg width="24" height="25" viewBox="0 0 24 25" fill="none" xmlns="http://www.w3.org/2000/svg">
<path d="M18.2223 14.6053V10.5588C18.2223 7.72029 16.2801 5.32912 13.6489 4.61C13.3885 3.95882 12.7521 3.5 12.0001 3.5C11.2481 3.5 10.6116 3.95882 10.3512 4.61C7.72006 5.33 5.77784 7.72029 5.77784 10.5588V14.6053L4.26051 16.1115C4.1778 16.1933 4.11221 16.2905 4.06751 16.3976C4.02282 16.5046 3.99989 16.6194 4.00006 16.7353V17.6176C4.00006 17.8517 4.09371 18.0761 4.26041 18.2416C4.42711 18.407 4.6532 18.5 4.88895 18.5H19.1112C19.3469 18.5 19.573 18.407 19.7397 18.2416C19.9064 18.0761 20.0001 17.8517 20.0001 17.6176V16.7353C20.0002 16.6194 19.9773 16.5046 19.9326 16.3976C19.8879 16.2905 19.8223 16.1933 19.7396 16.1115L18.2223 14.6053Z" fill="white"/>
<path d="M13.8402 20.9502C13.3025 21.3086 12.6594 21.5008 12.0001 21.5C11.3408 21.5008 10.6976 21.3086 10.1599 20.9502C9.62229 20.5917 9.21688 20.0849 9.00006 19.5H15.0001C14.7832 20.0849 14.3778 20.5917 13.8402 20.9502Z" fill="white"/>
</svg>
