<svg width="17" height="16" viewBox="0 0 17 16" fill="none" xmlns="http://www.w3.org/2000/svg">
<path fill-rule="evenodd" clip-rule="evenodd" d="M8.5 1C10.4938 1.04382 12.1479 1.723 13.4624 3.03756C14.777 4.35212 15.4562 6.00625 15.5 8C15.4562 9.99375 14.777 11.6479 13.4624 12.9624C12.1479 14.277 10.4938 14.9562 8.5 15C6.50625 14.9562 4.85212 14.277 3.53756 12.9624C2.223 11.6479 1.54382 9.99375 1.5 8C1.54382 6.00625 2.223 4.35212 3.53756 3.03756C4.85212 1.723 6.50625 1.04382 8.5 1ZM8.5 2C6.79107 2.03756 5.37325 2.61971 4.24648 3.74648C3.11971 4.87325 2.53756 6.29107 2.5 8C2.53756 9.70893 3.11971 11.1268 4.24648 12.2535C5.37325 13.3803 6.79107 13.9624 8.5 14C10.2089 13.9624 11.6268 13.3803 12.7535 12.2535C13.8803 11.1268 14.4624 9.70893 14.5 8C14.4624 6.29107 13.8803 4.87325 12.7535 3.74648C11.6268 2.61971 10.2089 2.03756 8.5 2ZM11.2572 5.07133C11.4677 5.19762 11.5518 5.45432 11.4681 5.67611L11.4287 5.75732L8.42875 10.7573C8.27812 11.0084 7.95127 11.0718 7.71973 10.9144L7.64645 10.8536L5.64645 8.85363C5.45118 8.65837 5.45118 8.34178 5.64645 8.14652C5.82001 7.97296 6.08944 7.95367 6.28431 8.08867L6.35355 8.14652L7.9 9.69308L10.5713 5.24283C10.7133 5.00604 11.0205 4.92926 11.2572 5.07133Z" fill="#0DB4A7"/>
</svg>
