<svg width="17" height="17" viewBox="0 0 17 17" fill="none" xmlns="http://www.w3.org/2000/svg">
<path fill-rule="evenodd" clip-rule="evenodd" d="M8.05279 2.77639C8.23705 2.40787 8.76296 2.40787 8.94722 2.77639L11.179 7.241L14.7 4.6C15.0482 4.33889 15.5247 4.61598 15.4999 5.02502L15.4881 5.10847L13.4881 14.1085C13.4373 14.3372 13.2344 14.5 13 14.5H4.00001C3.76566 14.5 3.56275 14.3372 3.51191 14.1085L1.51191 5.10847C1.41121 4.65532 1.92864 4.32148 2.30001 4.6L5.82001 7.24L8.05279 2.77639ZM12.8192 12.5H4.17816L4.40101 13.5H12.598L12.8192 12.5ZM8.50001 4.118L6.44722 8.22361C6.30771 8.50262 5.94957 8.58717 5.70001 8.4L2.78101 6.211L3.95616 11.504L4.00001 11.5H13L13.0402 11.504L14.217 6.212L11.3 8.4C11.0754 8.56845 10.7628 8.51682 10.6009 8.3014L10.5528 8.22361L8.50001 4.118Z" fill="#FBB03B"/>
</svg>
