<svg width="45" height="35" viewBox="0 0 45 35" fill="none" xmlns="http://www.w3.org/2000/svg">
<path fill-rule="evenodd" clip-rule="evenodd" d="M37.4694 5.30576C39.454 6.47372 40.6025 7.45201 40.9114 8.23398C41.2204 9.01595 40.72 9.80125 39.407 10.5899L36.1966 12.4999L25.4556 6.16852V12.5401L30.8185 15.7279L36.1814 18.919L30.8185 22.1068L25.4556 18.919L20.0928 15.7279L14.7299 12.5401L20.0928 9.35234L25.4556 6.16124V6.16665L28.923 4.10452C29.9203 3.50556 31.0823 3.25267 32.402 3.34584C33.7217 3.43901 35.4108 4.09121 37.4694 5.30576ZM4 18.9186L9.36288 22.1064L14.7291 25.2941L20.092 28.4852L25.4549 31.673L30.8178 28.4852L25.4549 25.2941L20.092 22.1064L14.7291 18.9186V12.5397L9.36288 15.7275L4 18.9186Z" fill="white"/>
</svg>
