<svg width="198" height="35" viewBox="0 0 198 35" fill="none" xmlns="http://www.w3.org/2000/svg">
<path fill-rule="evenodd" clip-rule="evenodd" d="M37.4694 5.30576C39.454 6.47372 40.6025 7.45201 40.9114 8.23398C41.2204 9.01595 40.72 9.80125 39.407 10.5899L36.1966 12.4999L25.4556 6.16852V12.5401L30.8185 15.7279L36.1814 18.919L30.8185 22.1068L25.4556 18.919L20.0928 15.7279L14.7299 12.5401L20.0928 9.35234L25.4556 6.16124V6.16665L28.923 4.10452C29.9203 3.50556 31.0823 3.25267 32.402 3.34584C33.7217 3.43901 35.4108 4.09121 37.4694 5.30576ZM4 18.9186L9.36288 22.1064L14.7291 25.2941L20.092 28.4852L25.4549 31.673L30.8178 28.4852L25.4549 25.2941L20.092 22.1064L14.7291 18.9186V12.5397L9.36288 15.7275L4 18.9186Z" fill="white"/>
<path d="M63.2548 25.9694H52.9998V9.03076H62.8574V12.1353H56.8512V15.9061H62.4448V19.0031H56.8512V22.88H63.2548V25.9694Z" fill="white"/>
<path d="M81.3732 25.9694H77.178L75.963 22.1985H69.8803L68.6729 25.9694H64.5006L70.7209 9.03076H75.2905L81.3732 25.9694ZM75.0765 19.2681L73.2426 13.574C73.105 13.1499 73.0133 12.6426 72.9598 12.052H72.8605C72.8223 12.5517 72.7229 13.0439 72.5625 13.5285L70.7056 19.2681H75.0765Z" fill="white"/>
<path d="M82.7253 25.3181V21.5397C83.4131 22.1152 84.1696 22.5468 84.9796 22.8345C85.7896 23.1222 86.6073 23.2661 87.4325 23.2661C87.914 23.2661 88.3419 23.2207 88.7011 23.1374C89.0602 23.0541 89.3659 22.9329 89.6104 22.7739C89.8549 22.6225 90.0307 22.4408 90.153 22.2287C90.2752 22.0167 90.3287 21.7971 90.3287 21.5473C90.3287 21.2141 90.237 20.9188 90.046 20.6613C89.8549 20.4039 89.5951 20.1616 89.2665 19.942C88.9379 19.7224 88.5482 19.5104 88.0897 19.3059C87.6389 19.1015 87.1498 18.8895 86.6225 18.6775C85.2853 18.1247 84.2919 17.4508 83.6347 16.6557C82.9775 15.8607 82.6489 14.899 82.6489 13.7708C82.6489 12.8924 82.8247 12.1277 83.1838 11.4992C83.543 10.8631 84.0244 10.3407 84.6434 9.93179C85.2623 9.5229 85.973 9.22002 86.783 9.03072C87.593 8.84142 88.4489 8.74298 89.3582 8.74298C90.2447 8.74298 91.0394 8.79598 91.7271 8.90199C92.4149 9.008 93.0491 9.17458 93.6299 9.39417V12.9227C93.3471 12.7259 93.0338 12.5517 92.6976 12.4003C92.3614 12.2488 92.0099 12.1277 91.6507 12.0292C91.2915 11.9308 90.94 11.8551 90.5809 11.8096C90.2294 11.7642 89.8931 11.7415 89.5722 11.7415C89.1366 11.7415 88.7393 11.7794 88.3801 11.8627C88.021 11.9459 87.7229 12.0595 87.4708 12.211C87.2262 12.3624 87.0352 12.5366 86.8976 12.7486C86.7601 12.9606 86.699 13.1953 86.699 13.4528C86.699 13.7329 86.7754 13.9904 86.9282 14.2176C87.081 14.4447 87.295 14.6567 87.5701 14.8536C87.8452 15.0505 88.1891 15.2549 88.5864 15.4442C88.9838 15.6335 89.4346 15.838 89.9313 16.0424C90.6114 16.3226 91.2304 16.6255 91.773 16.9435C92.3155 17.2615 92.7817 17.625 93.1714 18.0263C93.5611 18.4276 93.8591 18.8895 94.0654 19.4044C94.2718 19.9193 94.3787 20.5175 94.3787 21.2065C94.3787 22.153 94.1953 22.9481 93.8362 23.5841C93.477 24.2278 92.9803 24.7426 92.3614 25.144C91.7424 25.5453 91.0164 25.8254 90.1988 25.9996C89.3735 26.1738 88.51 26.257 87.593 26.257C86.6531 26.257 85.7667 26.1813 84.9185 26.0223C84.0779 25.8709 83.3443 25.6286 82.7253 25.3181Z" fill="white"/>
<path d="M110.082 9.02295L104.511 19.9418V25.9691H100.66V20.0175L95.2343 9.03052H99.6359L102.387 15.3531C102.433 15.4743 102.563 15.9286 102.777 16.7388H102.822C102.929 16.1709 103.052 15.7242 103.189 15.4061L105.994 9.03809H110.082V9.02295Z" fill="white"/>
<path d="M113.082 25.9694V9.03076H117.804C123.826 9.03076 126.844 11.787 126.844 17.2918C126.844 19.9042 126.011 22.0092 124.338 23.5917C122.664 25.1819 120.425 25.9694 117.621 25.9694H113.082ZM115.092 10.8178V24.1672H117.644C119.883 24.1672 121.633 23.569 122.878 22.3802C124.124 21.1914 124.751 19.5029 124.751 17.3221C124.751 12.9834 122.42 10.8102 117.766 10.8102H115.092V10.8178Z" fill="white"/>
<path d="M147.637 25.9691H145.642V14.6035C145.642 13.7024 145.696 12.6045 145.81 11.3097H145.764C145.573 12.0745 145.405 12.6196 145.252 12.9528L139.407 25.9691H138.429L132.598 13.0437C132.43 12.6651 132.262 12.0896 132.086 11.3097H132.04C132.101 11.9836 132.14 13.0967 132.14 14.6262V25.9691H130.206V9.03052H132.85L138.092 20.8428C138.497 21.7515 138.757 22.4254 138.879 22.8721H138.948C139.292 21.9408 139.567 21.2517 139.773 20.7898L145.13 9.02295H147.637V25.9691Z" fill="white"/>
<path d="M165.365 25.9694H163.149L161.338 21.2217H154.086L152.382 25.9694H150.151L156.707 9.03076H158.778L165.365 25.9694ZM160.681 19.4347L157.999 12.2186C157.915 11.9838 157.823 11.6052 157.739 11.0828H157.693C157.617 11.5598 157.525 11.9384 157.418 12.2186L154.759 19.4347H160.681Z" fill="white"/>
<path d="M180.135 25.9694H177.751L174.893 21.2217C174.634 20.7825 174.374 20.4039 174.129 20.0935C173.885 19.783 173.632 19.5256 173.373 19.3287C173.113 19.1318 172.838 18.9879 172.54 18.8971C172.242 18.8062 171.905 18.7608 171.531 18.7608H169.888V25.9694H167.886V9.03076H172.991C173.739 9.03076 174.427 9.12162 175.061 9.31092C175.696 9.49265 176.238 9.78039 176.704 10.159C177.171 10.5376 177.53 11.0071 177.797 11.5674C178.057 12.1277 178.187 12.7865 178.187 13.5437C178.187 14.1343 178.095 14.6795 177.919 15.1717C177.744 15.6638 177.484 16.103 177.155 16.4892C176.827 16.8754 176.429 17.201 175.963 17.4736C175.497 17.7461 174.977 17.9582 174.397 18.102V18.1475C174.679 18.2762 174.932 18.4201 175.146 18.5791C175.359 18.7381 175.558 18.9349 175.749 19.1545C175.94 19.3741 176.131 19.624 176.315 19.9042C176.498 20.1843 176.712 20.5099 176.941 20.881L180.135 25.9694ZM169.88 10.8178V16.9587H172.601C173.105 16.9587 173.564 16.8829 173.992 16.7315C174.42 16.5801 174.786 16.368 175.092 16.0879C175.405 15.8077 175.642 15.467 175.818 15.0581C175.994 14.6492 176.078 14.1949 176.078 13.6951C176.078 12.7865 175.78 12.0823 175.191 11.575C174.603 11.0676 173.739 10.8102 172.624 10.8102H169.88V10.8178Z" fill="white"/>
<path d="M193.776 25.2575C192.515 25.9163 190.941 26.2495 189.054 26.2495C186.624 26.2495 184.675 25.4771 183.216 23.9249C181.756 22.3726 181.023 20.3357 181.023 17.8143C181.023 15.1035 181.848 12.9152 183.491 11.2493C185.134 9.58347 187.22 8.74298 189.749 8.74298C191.369 8.74298 192.714 8.97772 193.776 9.43961V11.5522C192.554 10.8783 191.201 10.5376 189.726 10.5376C187.762 10.5376 186.173 11.1887 184.95 12.4836C183.728 13.7859 183.124 15.5199 183.124 17.6931C183.124 19.7603 183.697 21.4034 184.836 22.6225C185.974 23.8492 187.472 24.4625 189.321 24.4625C191.041 24.4625 192.523 24.0839 193.784 23.3267V25.2575H193.776Z" fill="white"/>
</svg>
