<svg width="24" height="25" viewBox="0 0 24 25" fill="none" xmlns="http://www.w3.org/2000/svg">
<path fill-rule="evenodd" clip-rule="evenodd" d="M20.6 11.5C21.3732 11.5 22 12.1268 22 12.9V21.1C22 21.8732 21.3732 22.5 20.6 22.5H8.4C7.6268 22.5 7 21.8732 7 21.1V12.9C7 12.1268 7.6268 11.5 8.4 11.5H20.6ZM16.306 17.513L15.1783 18.5543C14.7952 18.9079 14.2048 18.9079 13.8217 18.5543L12.693 17.513L8.706 21.5H20.293L16.306 17.513ZM21 13.18L17.041 16.834L21 20.793V13.18ZM8 13.181V20.792L11.958 16.834L8 13.181ZM4.5 14.5C4.77614 14.5 5 14.7239 5 15C5 15.2761 4.77614 15.5 4.5 15.5H3.5C3.22386 15.5 3 15.7239 3 16V18C3 18.2761 3.22386 18.5 3.5 18.5H4.5C4.77614 18.5 5 18.7239 5 19C5 19.2761 4.77614 19.5 4.5 19.5H3.5C2.67157 19.5 2 18.8284 2 18V16C2 15.1716 2.67157 14.5 3.5 14.5H4.5ZM20.261 12.5H8.738L14.5 17.8195L20.261 12.5ZM4.5 16.5C4.77614 16.5 5 16.7239 5 17C5 17.2761 4.77614 17.5 4.5 17.5C4.22386 17.5 4 17.2761 4 17C4 16.7239 4.22386 16.5 4.5 16.5ZM18.5 8.5C18.7761 8.5 19 8.72386 19 9C19 9.27614 18.7761 9.5 18.5 9.5H3.5C3.22386 9.5 3 9.72386 3 10V12C3 12.2761 3.22386 12.5 3.5 12.5H4.5C4.77614 12.5 5 12.7239 5 13C5 13.2761 4.77614 13.5 4.5 13.5H3.5C2.67157 13.5 2 12.8284 2 12V10C2 9.17157 2.67157 8.5 3.5 8.5H18.5ZM4.5 10.5C4.77614 10.5 5 10.7239 5 11C5 11.2761 4.77614 11.5 4.5 11.5C4.22386 11.5 4 11.2761 4 11C4 10.7239 4.22386 10.5 4.5 10.5ZM17.5 2.5C18.3284 2.5 19 3.17157 19 4V6C19 6.82843 18.3284 7.5 17.5 7.5H3.5C2.67157 7.5 2 6.82843 2 6V4C2 3.17157 2.67157 2.5 3.5 2.5H17.5ZM17.5 3.5H3.5C3.25454 3.5 3.05039 3.67688 3.00806 3.91012L3 4V6C3 6.24546 3.17688 6.44961 3.41012 6.49194L3.5 6.5H17.5C17.7455 6.5 17.9496 6.32312 17.9919 6.08988L18 6V4C18 3.75454 17.8231 3.55039 17.5899 3.50806L17.5 3.5ZM4.5 4.5C4.77614 4.5 5 4.72386 5 5C5 5.27614 4.77614 5.5 4.5 5.5C4.22386 5.5 4 5.27614 4 5C4 4.72386 4.22386 4.5 4.5 4.5ZM6.5 4.5C6.77614 4.5 7 4.72386 7 5C7 5.27614 6.77614 5.5 6.5 5.5C6.22386 5.5 6 5.27614 6 5C6 4.72386 6.22386 4.5 6.5 4.5ZM8.5 4.5C8.77614 4.5 9 4.72386 9 5C9 5.27614 8.77614 5.5 8.5 5.5C8.22386 5.5 8 5.27614 8 5C8 4.72386 8.22386 4.5 8.5 4.5Z" fill="black"/>
</svg>
