<svg width="14" height="15" viewBox="0 0 14 15" fill="none" xmlns="http://www.w3.org/2000/svg">
<path fill-rule="evenodd" clip-rule="evenodd" d="M7.00006 0.5C10.8661 0.5 14.0001 3.63401 14.0001 7.5C14.0001 11.366 10.8661 14.5 7.00006 14.5C3.13407 14.5 6.10352e-05 11.366 6.10352e-05 7.5C6.10352e-05 3.63401 3.13407 0.5 7.00006 0.5ZM7.00006 1.5C3.68635 1.5 1.00006 4.18629 1.00006 7.5C1.00006 10.8137 3.68635 13.5 7.00006 13.5C10.3138 13.5 13.0001 10.8137 13.0001 7.5C13.0001 4.18629 10.3138 1.5 7.00006 1.5ZM7.00006 10.5C7.2762 10.5 7.50006 10.7239 7.50006 11C7.50006 11.2761 7.2762 11.5 7.00006 11.5C6.72392 11.5 6.50006 11.2761 6.50006 11C6.50006 10.7239 6.72392 10.5 7.00006 10.5ZM7.00006 3.5C8.41279 3.5 9.50006 4.54961 9.50006 6C9.50006 7.04196 8.87081 7.81521 7.71033 8.28714L7.50006 8.36733V9C7.50006 9.27614 7.2762 9.5 7.00006 9.5C6.7546 9.5 6.55045 9.32312 6.50812 9.08988L6.50006 9V8.36745C6.49996 7.94469 6.76575 7.56757 7.16391 7.42547C8.09346 7.09371 8.50006 6.63146 8.50006 6C8.50006 5.10993 7.86824 4.5 7.00006 4.5C6.17163 4.5 5.50006 5.17157 5.50006 6C5.50006 6.27614 5.2762 6.5 5.00006 6.5C4.72392 6.5 4.50006 6.27614 4.50006 6C4.50006 4.61929 5.61935 3.5 7.00006 3.5Z" fill="white"/>
</svg>
