<svg width="24" height="25" viewBox="0 0 24 25" fill="none" xmlns="http://www.w3.org/2000/svg">
<g clip-path="url(#clip0_50_6551)">
<path d="M22.0011 6.87526C21.9439 6.90892 21.9502 6.97584 21.9228 7.02555C21.7619 7.32574 21.5189 7.49795 21.1741 7.49873C20.0553 7.50108 18.9366 7.50108 17.818 7.49873C17.7103 7.49899 17.6036 7.47787 17.5041 7.43658C17.4046 7.39529 17.3143 7.33466 17.2384 7.2582C17.1626 7.18175 17.1026 7.09099 17.0621 6.99119C17.0216 6.89139 17.0013 6.78454 17.0023 6.67683C16.9992 5.55826 16.9992 4.43956 17.0023 3.32073C17.0016 3.21315 17.0223 3.1065 17.0631 3.00696C17.1038 2.90742 17.164 2.81697 17.24 2.74084C17.316 2.66472 17.4064 2.60444 17.5059 2.5635C17.6054 2.52256 17.712 2.50178 17.8196 2.50235C18.9373 2.49922 20.056 2.49922 21.1757 2.50235C21.5279 2.50235 21.7749 2.68082 21.9318 2.99314C21.9541 3.03737 21.9459 3.09881 22.0015 3.12543L22.0011 6.87526Z" fill="#1B2C74"/>
<path d="M22.0011 14.3752C21.9439 14.4088 21.9502 14.4757 21.9228 14.5255C21.7619 14.8256 21.5189 14.9975 21.1741 14.9982C20.0553 15.0011 18.9366 15.0011 17.818 14.9982C17.7103 14.9985 17.6036 14.9773 17.5042 14.936C17.4047 14.8947 17.3144 14.834 17.2386 14.7576C17.1627 14.6812 17.1027 14.5904 17.0622 14.4906C17.0217 14.3909 17.0013 14.284 17.0023 14.1763C16.9992 13.0578 16.9992 11.9392 17.0023 10.8206C17.0014 10.713 17.0219 10.6063 17.0625 10.5067C17.1031 10.4071 17.1631 10.3165 17.2391 10.2403C17.315 10.164 17.4053 10.1036 17.5047 10.0626C17.6042 10.0215 17.7108 10.0006 17.8184 10.0011C18.9369 9.99769 20.0556 9.99769 21.1745 10.0011C21.5267 10.0011 21.7737 10.1795 21.9306 10.4915C21.9529 10.5357 21.9447 10.5975 22.0003 10.6242L22.0011 14.3752Z" fill="#1B2C74"/>
<path d="M2.62543 22.4998C2.59881 22.4446 2.53737 22.4524 2.49275 22.4301C2.17964 22.2736 2.00352 22.0266 2.00235 21.6736C1.99922 20.555 1.99922 19.4365 2.00235 18.3179C2.00193 18.2101 2.02294 18.1033 2.06417 18.0038C2.1054 17.9042 2.16602 17.8138 2.2425 17.7378C2.31898 17.6619 2.4098 17.6019 2.50967 17.5614C2.60955 17.5209 2.71648 17.5007 2.82425 17.5019C3.94282 17.4987 5.06139 17.4987 6.17996 17.5019C6.28768 17.5007 6.39456 17.521 6.49438 17.5615C6.5942 17.602 6.68498 17.6619 6.76145 17.7378C6.83792 17.8137 6.89855 17.904 6.93982 18.0035C6.98109 18.1031 7.00218 18.2098 7.00186 18.3175C7.00577 19.4361 7.00577 20.5548 7.00186 21.6736C7.00186 22.0258 6.823 22.2728 6.51146 22.4301C6.46723 22.4524 6.40539 22.4442 6.37878 22.4998H2.62543Z" fill="#1B2C74"/>
<path d="M10.1255 22.4996C10.0985 22.4444 10.037 22.4523 9.99281 22.43C9.67971 22.2734 9.50358 22.0264 9.50241 21.6734C9.49928 20.5548 9.49928 19.4363 9.50241 18.3177C9.50194 18.2101 9.52284 18.1035 9.56391 18.0041C9.60497 17.9046 9.66538 17.8143 9.74162 17.7384C9.81786 17.6625 9.90842 17.6025 10.008 17.5618C10.1077 17.5212 10.2144 17.5007 10.322 17.5017C11.4408 17.4985 12.5595 17.4985 13.6781 17.5017C13.7858 17.5006 13.8926 17.5209 13.9924 17.5614C14.0922 17.6019 14.183 17.6619 14.2594 17.7378C14.3359 17.8136 14.3965 17.9039 14.4378 18.0034C14.4791 18.1029 14.5002 18.2096 14.5 18.3173C14.5036 19.4359 14.5036 20.5546 14.5 21.6734C14.5 22.0257 14.3211 22.2726 14.0092 22.43C13.9649 22.4523 13.9035 22.444 13.8769 22.4996H10.1255Z" fill="#1B2C74"/>
<path d="M17.6248 22.4996C17.5912 22.4429 17.5243 22.4487 17.4746 22.4213C17.1748 22.2605 17.0025 22.0182 17.0018 21.673C16.9994 20.5547 16.9994 19.4365 17.0018 18.3185C17.0012 18.2109 17.022 18.1043 17.0629 18.0048C17.1038 17.9054 17.164 17.815 17.2401 17.7389C17.3162 17.6629 17.4066 17.6027 17.5061 17.5618C17.6056 17.521 17.7122 17.5003 17.8197 17.5009C18.9378 17.4978 20.056 17.4978 21.1743 17.5009C21.5265 17.5009 21.7731 17.6797 21.93 17.9917C21.9523 18.0359 21.9441 18.0973 21.9997 18.124V21.8742C21.9454 22.0168 21.8615 22.1464 21.7536 22.2543C21.6457 22.3622 21.5161 22.4461 21.3735 22.5004L17.6248 22.4996Z" fill="#00A9E0"/>
<path d="M4.48821 7.49951C3.94027 7.49951 3.39469 7.50147 2.84793 7.49951C2.354 7.49716 2.00137 7.14414 2.00098 6.64865C1.99967 5.54886 1.99967 4.44882 2.00098 3.34852C2.00176 2.85459 2.35557 2.50235 2.85067 2.5C3.95097 2.5 5.05102 2.50065 6.1508 2.50196C6.64433 2.50196 6.99736 2.85655 6.99814 3.35165C7.00023 4.45143 7.00023 5.55147 6.99814 6.65178C6.99814 7.14492 6.64237 7.49755 6.14806 7.49912C5.59465 7.50108 5.04123 7.49951 4.48821 7.49951Z" fill="#1B2C74"/>
<path d="M9.50031 5.00484C9.50031 4.46474 9.50031 3.9245 9.50031 3.38413C9.50109 2.84794 9.84238 2.50196 10.3747 2.5C11.4619 2.5 12.549 2.5 13.636 2.5C14.1448 2.5 14.4971 2.84833 14.4998 3.35321C14.5014 4.45352 14.5014 5.55356 14.4998 6.65334C14.4998 7.14531 14.1429 7.49677 13.6466 7.49755C12.5463 7.49912 11.4463 7.49912 10.3465 7.49755C9.85412 7.49755 9.50422 7.14061 9.50266 6.64434C9.49874 6.10071 9.50031 5.55278 9.50031 5.00484Z" fill="#1B2C74"/>
<path d="M4.51815 10.001C5.05826 10.001 5.59876 10.001 6.13886 10.001C6.64766 10.001 6.99677 10.3533 6.99755 10.8589C6.99912 11.9524 6.99912 13.0461 6.99755 14.1399C6.99755 14.6463 6.64531 14.9978 6.13925 14.9986C5.04573 15.0001 3.95221 15.0001 2.85869 14.9986C2.3499 14.9986 2.00078 14.6463 2 14.1399C2 13.0464 2 11.9528 2 10.8593C2 10.3505 2.35224 10.0022 2.8583 10.001C3.41132 9.99984 3.96474 10.001 4.51815 10.001Z" fill="#1B2C74"/>
<path d="M14.4987 12.5125C14.4987 13.0604 14.5007 13.606 14.4987 14.1528C14.4964 14.6459 14.1426 14.9985 13.6475 14.9993C12.5472 15.0009 11.447 15.0009 10.347 14.9993C9.85381 14.9993 9.50196 14.6439 9.50117 14.1481C9.49961 13.0483 9.49961 11.9482 9.50117 10.8479C9.50117 10.3544 9.85616 10.0029 10.352 10.0022C11.4523 10.0006 12.5525 10.0006 13.6526 10.0022C14.1453 10.0022 14.4968 10.3571 14.4987 10.853C14.5003 11.406 14.4987 11.9595 14.4987 12.5125Z" fill="#1B2C74"/>
</g>
<defs>
<clipPath id="clip0_50_6551">
<rect width="20" height="20" fill="white" transform="translate(2 2.5)"/>
</clipPath>
</defs>
</svg>
